<?xml version="1.0" encoding="UTF-8" standalone="no"?>
<!-- Created with Inkscape (http://www.inkscape.org/) -->

<svg
   xmlns:dc="http://purl.org/dc/elements/1.1/"
   xmlns:cc="http://creativecommons.org/ns#"
   xmlns:rdf="http://www.w3.org/1999/02/22-rdf-syntax-ns#"
   xmlns:svg="http://www.w3.org/2000/svg"
   xmlns="http://www.w3.org/2000/svg"
   xmlns:xlink="http://www.w3.org/1999/xlink"
   xmlns:sodipodi="http://sodipodi.sourceforge.net/DTD/sodipodi-0.dtd"
   xmlns:inkscape="http://www.inkscape.org/namespaces/inkscape"
   version="1.1"
   id="svg2"
   width="408.06699"
   height="67.960403"
   viewBox="0 0 408.06699 67.960405"
   sodipodi:docname="govilnius-logo-text.svg"
   inkscape:version="0.92.3 (2405546, 2018-03-11)">
  <metadata
     id="metadata8">
    <rdf:RDF>
      <cc:Work
         rdf:about="">
        <dc:format>image/svg+xml</dc:format>
        <dc:type
           rdf:resource="http://purl.org/dc/dcmitype/StillImage" />
        <dc:title></dc:title>
      </cc:Work>
    </rdf:RDF>
  </metadata>
  <defs
     id="defs6">
    <linearGradient
       inkscape:collect="always"
       id="linearGradient884">
      <stop
         style="stop-color:#800000;stop-opacity:1;"
         offset="0"
         id="stop880" />
      <stop
         style="stop-color:#df0000;stop-opacity:1"
         offset="1"
         id="stop882" />
    </linearGradient>
    <radialGradient
       inkscape:collect="always"
       xlink:href="#linearGradient884"
       id="radialGradient886"
       cx="539.49878"
       cy="460.0097"
       fx="539.49878"
       fy="460.0097"
       r="262.30798"
       gradientTransform="matrix(-2.4955866,0.27572674,-0.06752837,-0.61103239,1792.8888,161.29333)"
       gradientUnits="userSpaceOnUse" />
  </defs>
  <sodipodi:namedview
     pagecolor="#ffffff"
     bordercolor="#666666"
     borderopacity="1"
     objecttolerance="10"
     gridtolerance="10"
     guidetolerance="10"
     inkscape:pageopacity="0"
     inkscape:pageshadow="2"
     inkscape:window-width="1680"
     inkscape:window-height="987"
     id="namedview4"
     showgrid="false"
     inkscape:zoom="1.2668997"
     inkscape:cx="305.93321"
     inkscape:cy="-93.979584"
     inkscape:window-x="3832"
     inkscape:window-y="27"
     inkscape:window-maximized="1"
     inkscape:current-layer="svg2" />
  <path
     style="fill:url(#radialGradient886);fill-opacity:1;stroke-width:0.24635877"
     d="m 217.88143,0 0.006,27.53125 c 0.006,31.06706 -0.0319,30.354563 1.79101,34.339843 0.64164,1.40273 2.14802,3.160301 3.50977,4.09375 0.70081,0.480386 3.15582,1.361409 4.54687,1.632813 h 0.002 c 0.79759,0.154463 7.97306,-0.03341 9.15625,-0.240234 l 0.90429,-0.158203 -0.13476,-3.728516 c -0.0738,-2.05036 -0.21049,-3.813659 -0.30469,-3.917969 -0.0943,-0.10432 -1.43952,-0.214894 -2.98828,-0.246094 -3.18609,-0.06415 -3.99136,-0.370737 -4.99414,-1.898437 -1.33237,-2.02976 -1.26369,-0.50205 -1.33789,-30 L 227.96756,0 H 222.9246 Z M 32.897054,2.0039062 c -0.50793,0.00397 -1.03424,0.017873 -1.58203,0.039063 -6.45785,0.24981 -11.10771,1.5081931 -16.06445,4.3457031 -1.47413,0.84388 -3.86039,2.5883264 -4.53711,3.3164064 -0.3285,0.3534103 -0.69417,0.6425783 -0.8105498,0.6425783 -0.77199,0 -4.88123,5.391315 -6.32422,8.296875 -1.35863,2.73565 -1.63732,3.460749 -2.72460996,7.099609 -0.61953,2.0734 -0.86771,4.757485 -0.85351000341,9.240235 C 0.01597424,39.829696 0.28094424,42.035699 1.2369042,45.330079 c 1.36731,4.71191 3.90884,9.237312 6.95898,12.388672 0.88968,0.91921 1.6771,1.758184 1.75,1.865234 0.1609198,0.23631 3.8124098,2.976978 4.7363298,3.554688 3.23038,2.0199 8.20003,3.737693 12.64062,4.371093 2.00926,0.28659 10.30243,0.107441 11.82618,-0.255859 3.85604,-0.9194 5.58261,-1.507272 8.38671,-2.851563 1.22606,-0.58777 2.55712,-1.349439 2.95704,-1.693359 0.39991,-0.34392 0.82628,-0.62483 0.94726,-0.625 0.36686,-5e-4 4.82512,-4.482219 5.63867,-5.667969 0.41834,-0.60974 0.83428,-1.162668 0.92578,-1.230468 0.33337,-0.24698 2.45792,-4.461084 2.94727,-5.845704 1.4257,-4.034179 2.34826,-10.398616 2.16992,-14.972656 l -0.0762,-1.970703 -15.08984,-0.0625 -15.08982,-0.06445 v 4.3125 c 0,2.37224 -0.0266,4.396417 -0.0605,4.498047 -0.0339,0.10162 4.37306,0.240794 9.79296,0.308594 l 9.85348,0.123047 -0.0703,1.109374 c -0.0381,0.60974 -0.3518,1.883542 -0.69922,2.832032 -0.34742,0.94848 -0.69499,1.94776 -0.77149,2.21875 -0.0765,0.271 -0.74584,1.40665 -1.48632,2.52539 -1.99189,3.00938 -3.77981,4.395744 -8.0586,6.246094 -1.07949,0.46682 -3.52128,0.961427 -6.00586,1.216797 -10.89354,1.11964 -19.6076,-4.128251 -22.92382,-13.806641 -0.44098,-1.28705 -0.63475,-2.088709 -1.23633,-5.130859 -0.65059,-3.28988 -0.006,-9.629113 1.33203,-13.101563 2.33814,-6.06926 6.64302,-10.448142 12.32812,-12.539062 1.62936,-0.59926 5.49714,-1.255859 7.39258,-1.255859 2.71835,0 6.74678,0.706926 8.74414,1.535156 2.13635,0.88587 2.46289,1.049625 2.46289,1.234375 0,0.10242 0.14807,0.185547 0.33008,0.185547 0.47902,0 2.96098,2.174848 4.11523,3.605469 0.43537,0.53962 1.70345,2.447278 2.10938,3.173828 0.25769,0.46123 0.58077,0.491987 5.75586,0.554687 5.16469,0.06252 5.47228,0.04147 5.29687,-0.369141 -0.10241,-0.239749 -0.23853,-0.740954 -0.30273,-1.115234 -0.0642,-0.37427 -0.2141,-0.742306 -0.33398,-0.816406 -0.11985,-0.07409 -0.21875,-0.300116 -0.21875,-0.503906 0,-0.59312 -1.47022,-3.51106 -2.75586,-5.46875 -2.35517,-3.58624 -6.25736,-6.9563852 -10.11524,-8.7343752 -2.05601,-0.94757 -2.59681,-1.1545406 -4.25,-1.6191406 -3.91497,-1.100225 -6.63786,-1.5121434 -10.19336,-1.484375 z M 140.85408,2.6230468 c -0.92811,0.00321 -2.18151,0.044918 -3.90039,0.087891 l -4.92773,0.1230469 0.0371,1.3554688 c 0.0265,0.9639 0.2577,1.8003075 0.80078,2.8984375 0.41989,0.8490206 0.76367,1.6424116 0.76367,1.7636716 0,0.19647 0.89194,2.2377204 2.21484,5.0683604 0.2533,0.54199 0.69488,1.585992 0.98243,2.320312 0.28752,0.73432 0.75108,1.842241 1.02929,2.462891 0.27824,0.62065 0.64713,1.46265 0.82032,1.86914 0.17316,0.40649 0.54917,1.26412 0.83593,1.90625 0.28676,0.64214 0.52149,1.230794 0.52149,1.308594 0,0.07776 0.31936,0.827696 0.70898,1.666016 0.98359,2.11643 1.43067,3.133694 1.75391,3.990234 0.15262,0.40445 1.00574,2.399181 1.89453,4.431641 0.88879,2.03246 1.75555,4.027104 1.92773,4.433593 0.17218,0.40649 0.60367,1.380943 0.95704,2.164063 0.35336,0.78313 0.64257,1.47155 0.64257,1.53125 0,0.05972 0.28923,0.750083 0.64258,1.533203 0.35338,0.78313 0.78221,1.75562 0.95508,2.16211 0.17285,0.4065 0.54918,1.266073 0.83594,1.908203 0.28676,0.64214 0.52148,1.219956 0.52148,1.285156 0,0.06521 0.26432,0.704542 0.58789,1.419922 1.28272,2.83595 2.25649,5.065539 2.60938,5.980469 0.1045,0.271 0.41299,0.991832 0.68554,1.601562 0.27257,0.60974 1.02139,2.383186 1.66407,3.941406 0.64267,1.55822 1.31201,3.110469 1.48828,3.449219 0.17626,0.33874 0.46632,0.977599 0.64453,1.417969 l 0.32422,0.798828 h 2.36133 c 2.6181,0 2.34154,0.17307 3.2832,-2.03125 0.21707,-0.50812 0.56043,-1.31287 0.76367,-1.78711 0.20325,-0.47424 0.52425,-1.221739 0.71289,-1.662109 0.18861,-0.44036 0.63296,-1.441479 0.98633,-2.224609 0.35336,-0.78312 0.64063,-1.522068 0.64063,-1.642578 0,-0.12049 0.16608,-0.532416 0.36718,-0.916016 0.44211,-0.84329 1.60547,-3.498292 1.60547,-3.664062 0,-0.06521 0.23473,-0.64498 0.52149,-1.28711 0.28676,-0.64214 0.66064,-1.49976 0.83203,-1.90625 0.17142,-0.40649 0.50484,-1.182619 0.74023,-1.724609 0.2354,-0.54199 0.59363,-1.373416 0.79688,-1.847657 0.20325,-0.47424 0.53503,-1.250369 0.73828,-1.724609 0.20324,-0.47424 0.53634,-1.250369 0.73828,-1.724609 0.20194,-0.47424 0.52049,-1.184685 0.70898,-1.578125 0.18846,-0.39343 0.34375,-0.864445 0.34375,-1.046875 0,-0.18243 0.1106,-0.330078 0.2461,-0.330078 0.13549,0 0.24609,-0.204898 0.24609,-0.455078 0,-0.25017 0.15472,-0.778445 0.34375,-1.171876 0.63457,-1.32075 2.85938,-6.452433 2.85938,-6.595703 0,-0.07794 0.28953,-0.781633 0.64453,-1.564453 0.35503,-0.78281 0.7863,-1.755619 0.95898,-2.162109 0.17267,-0.40649 0.53296,-1.237916 0.80078,-1.847656 0.26779,-0.60974 0.90064,-2.106702 1.40625,-3.326172 0.99807,-2.40719 1.30051,-3.115228 2.04688,-4.804688 0.85282,-1.93047 2.68859,-6.212611 3.00976,-7.019531 0.10786,-0.271 0.37476,-0.909849 0.5918,-1.417969 0.21707,-0.5081104 0.54739,-1.2842394 0.73437,-1.7246094 0.18696,-0.44037 0.63596,-1.4522601 0.99805,-2.2500001 0.42209,-0.92996 0.63169,-1.7692438 0.58399,-2.3398438 l -0.0742,-0.890625 -5.6836,-0.066406 -5.68359,-0.066406 -0.26563,0.5585938 c -0.54748,1.15327 -1.09257,2.4514582 -2.0664,4.9179686 -1.03912,2.6318799 -1.28425,3.2197569 -2.16211,5.1855469 -0.28676,0.64214 -0.52149,1.252369 -0.52149,1.355469 3.8e-4,0.1031 -0.21512,0.629885 -0.47851,1.171875 -0.26338,0.54199 -0.72499,1.64991 -1.02734,2.46289 -0.30238,0.81298 -0.86299,2.175141 -1.2461,3.025391 -0.38309,0.85026 -0.69726,1.686625 -0.69726,1.859375 0,0.17276 -0.10041,0.420108 -0.22266,0.548828 -0.12221,0.12872 -0.39206,0.732057 -0.59961,1.341797 -0.20759,0.60973 -0.72714,2.051395 -1.15625,3.203125 -0.42911,1.15173 -1.19854,3.256968 -1.70898,4.679688 -0.51045,1.422719 -1.1535,3.198119 -1.42774,3.943359 -0.50945,1.38432 -2.37182,6.530808 -3.36523,9.298828 -0.30394,0.84684 -0.60818,1.594509 -0.67578,1.662109 -0.15205,0.15206 -0.49054,-0.54704 -1.19141,-2.46289 -0.2974,-0.81299 -0.6315,-1.699713 -0.74414,-1.970703 -0.11266,-0.271 -0.43854,-1.157723 -0.72266,-1.970703 -0.2841,-0.81299 -0.6136,-1.699704 -0.73242,-1.970704 -0.20238,-0.46159 -0.58619,-1.49612 -1.7168,-4.61914 -0.25755,-0.71136 -0.80574,-2.179692 -1.21679,-3.263672 -0.41105,-1.08397 -1.21184,-3.246468 -1.78125,-4.804688 -0.56941,-1.55822 -1.13108,-2.937686 -1.24805,-3.066406 -0.11701,-0.12872 -0.21289,-0.37902 -0.21289,-0.55664 0,-0.177621 -0.20985,-0.794751 -0.4668,-1.369141 -0.25695,-0.57439 -0.88009,-2.040286 -1.38476,-3.259766 -1.47199,-3.55685 -1.62745,-3.920303 -1.86524,-4.371093 -0.12409,-0.235281 -0.22461,-0.640804 -0.22461,-0.902344 0,-0.26154 -0.0893,-0.513394 -0.19726,-0.558594 -0.108,-0.04517 -0.56663,-1.024051 -1.01953,-2.175781 -0.45291,-1.1517299 -1.01778,-2.5380879 -1.25391,-3.0800779 -0.23616,-0.5419809 -0.78912,-1.8336041 -1.23047,-2.8710941 -0.72001,-1.6925025 -0.577,-2.0291763 -3.36133,-2.0195313 z m 161.44727,0.7128906 c -2.66486,-0.01495 -4.61588,1.0035257 -5.65234,2.9472657 -0.75967,1.4247301 -0.74093,4.4737809 0.0391,6.0820309 0.55707,1.14864 1.09148,1.626158 2.73828,2.455078 1.01372,0.51026 3.53525,0.595709 4.96289,0.167969 1.22569,-0.36723 2.79148,-1.710624 3.34766,-2.871094 0.31568,-0.65869 0.43052,-1.483173 0.41992,-3.0019528 -0.0126,-1.82595 -0.0978,-2.2233911 -0.66406,-3.1132811 -1.15298,-1.81201 -2.78823,-2.6525157 -5.19141,-2.6660157 z m -100.43359,0.019531 c -1.83342,0.00524 -2.23921,0.090477 -3.26172,0.6855469 -2.0364,1.18512 -2.89649,2.728732 -2.89649,5.1953126 0,2.1117101 0.70108,3.7084991 2.0918,4.7617191 0.59405,0.44988 1.39262,0.913013 1.77344,1.027343 0.38083,0.11432 1.35694,0.21461 2.16992,0.22461 2.51974,0.02977 4.43758,-0.920439 5.38476,-2.667969 1.7131,-3.1606201 0.809,-6.933407 -2.05859,-8.591797 -0.96024,-0.55535 -1.38935,-0.6397656 -3.20312,-0.6347656 z m 66,18.6250006 c -2.02884,0.05899 -4.04164,0.312506 -5.69336,0.773437 -1.56233,0.43599 -3.72249,1.381507 -3.84961,1.685547 -0.0452,0.10798 -0.21734,0.197266 -0.38282,0.197266 -0.34537,0 -3.0232,2.533221 -3.64843,3.451171 l -0.41797,0.613282 -0.0117,-0.681641 c -0.0398,-2.09832 -1.58007,-4.37027 -3.64258,-5.375 -1.05563,-0.5142 -1.52696,-0.573078 -4.625,-0.580078 -1.89696,-0.0046 -3.97553,0.07922 -4.61914,0.1875 l -1.16992,0.197266 v 3.55664 3.558594 h 1.13672 c 1.60414,0 2.98052,0.816338 3.29687,1.955078 0.15023,0.5407 0.2461,7.523704 0.2461,18.183594 l 0.002,17.30664 h 5.17383 5.17383 V 53.785156 c 0,-12.75005 0.0189,-13.296631 0.52929,-15.212891 0.2912,-1.09321 0.73358,-2.280965 0.98438,-2.640625 0.25079,-0.35966 0.45703,-0.764717 0.45703,-0.898437 0,-0.13373 0.60001,-0.842192 1.33398,-1.576172 2.46869,-2.46869 6.30652,-3.797274 9.1836,-3.177734 2.17525,0.4684 3.03805,0.800865 4.42773,1.703125 1.24567,0.80876 3.28516,3.321305 3.28516,4.046875 0,0.193 0.0789,0.430443 0.17578,0.527343 0.68082,0.68081 0.78823,2.887957 0.79883,16.472657 l 0.01,13.980468 h 5.17383 5.17383 l -0.01,-14.226562 c -0.009,-14.73297 -0.12175,-16.789274 -1.08203,-19.646484 -0.58734,-1.747561 -1.88551,-4.326352 -2.54297,-5.050782 -0.30743,-0.33874 -0.61614,-0.783088 -0.68554,-0.986328 -0.15654,-0.45884 -3.32125,-2.955078 -3.7461,-2.955078 -0.1708,0 -0.31054,-0.112547 -0.31054,-0.248047 0,-0.13549 -0.14961,-0.246094 -0.33204,-0.246094 -0.18242,0 -0.68774,-0.178344 -1.125,-0.396484 -1.86188,-0.928831 -5.28657,-1.371759 -8.66796,-1.273437 z m 120.61718,0.06836 c -5.29721,0 -6.37862,0.133982 -9.23828,1.138672 -1.81421,0.6374 -2.32873,0.895425 -4.06445,2.041015 -2.47096,1.63085 -4.12514,3.675889 -5.01563,6.199219 -0.72074,2.0423 -0.74545,6.047275 -0.0488,7.953125 0.87899,2.40483 2.57092,4.178973 5.25,5.507813 3.17854,1.57659 4.75203,1.926957 15.33398,3.404297 1.71586,0.23955 3.79869,0.783161 5.10156,1.332031 3.22912,1.36035 3.85238,5.17824 1.28906,7.90039 -1.84944,1.96404 -4.11538,2.6941 -8.36132,2.69336 -2.75158,-5.3e-4 -3.42695,-0.08313 -4.80274,-0.583985 -2.6807,-0.97593 -4.41232,-2.431018 -4.81836,-4.048828 -0.09,-0.35854 -0.26231,-0.712609 -0.38281,-0.787109 -0.12046,-0.07446 -0.21875,-0.353331 -0.21875,-0.619141 0,-0.46639 -0.17574,-0.480415 -4.98242,-0.416015 l -4.98047,0.06641 0.0723,1.169922 c 0.17427,2.82767 1.83871,6.284983 3.97265,8.251953 2.17399,2.00387 6.03432,3.71635 9.85938,4.375 2.51577,0.43315 8.98704,0.447141 11.57812,0.02539 4.49681,-0.73195 8.26724,-2.505636 10.75391,-5.060546 2.25933,-2.32132 3.28015,-5.02312 3.28515,-8.6875 0.006,-4.4302 -1.42172,-7.407463 -4.57421,-9.533204 -0.82431,-0.555849 -1.66265,-1.011718 -1.86133,-1.011718 -0.19867,0 -0.46503,-0.09637 -0.59375,-0.214844 -0.56658,-0.52144 -5.22878,-1.686324 -8.48828,-2.121094 -5.77987,-0.77096 -7.95827,-1.153942 -9.32032,-1.638672 -2.05889,-0.73272 -2.65181,-1.115476 -3.21289,-2.066406 -0.68131,-1.15485 -0.69703,-2.96136 -0.0312,-3.8125 0.26496,-0.33875 0.48528,-0.738482 0.48828,-0.888672 0.008,-0.41382 2.44621,-1.924428 3.70118,-2.292968 0.60974,-0.17906 1.42944,-0.423279 1.82226,-0.542969 1.06178,-0.3235 4.25406,-0.248065 5.9375,0.140625 3.32594,0.76792 4.71884,1.611334 5.625,3.402344 0.36099,0.713459 0.65625,1.434142 0.65625,1.601562 0,0.23042 1.0797,0.304688 4.43555,0.304688 h 4.43359 v -1.46875 c 0,-0.893281 -0.20646,-2.027452 -0.52734,-2.894532 -0.54138,-1.46287 -2.35839,-4.219093 -2.79883,-4.246094 -0.13549,-0.0083 -0.59005,-0.339104 -1.01172,-0.734374 -1.16528,-1.092291 -4.39457,-2.627186 -6.87109,-3.265626 -1.97577,-0.509389 -2.78047,-0.572265 -7.39063,-0.572265 z m -296.492176,0.02539 c -4.27935,-0.02238 -6.41592,0.202286 -8.00782,0.841796 -0.27099,0.10887 -1.26831,0.495365 -2.21679,0.859375 -1.81522,0.69663 -4.32649,2.124188 -5.19727,2.955079 -0.284,0.270989 -0.89423,0.836419 -1.35547,1.255859 -1.11659,1.01541 -2.68555,2.743894 -2.68555,2.958984 0,0.09474 -0.26029,0.516267 -0.57812,0.935547 -0.5188,0.68439 -1.09712,1.829843 -1.63086,3.226563 -0.10354,0.27099 -0.30424,0.768681 -0.44531,1.107421 -1.36455,3.27683 -1.65935,10.664541 -0.58985,14.78125 1.42816,5.497311 4.02777,9.411823 8.2461,12.414063 1.67075,1.18911 4.33924,2.615234 4.89453,2.615234 0.19327,0 0.45796,0.106398 0.58789,0.236329 0.26917,0.26917 2.83383,0.961115 4.66602,1.259765 1.90441,0.31041 8.64046,0.04975 10.34765,-0.400391 0.81298,-0.214359 1.81031,-0.480023 2.216796,-0.589843 1.03493,-0.27959 4.4518,-1.898792 5.38281,-2.550781 0.76145,-0.533261 2.5576,-2.010175 3.44336,-2.833985 0.24692,-0.22966 1.08295,-1.249395 1.85742,-2.265625 3.56085,-4.67233 4.98667,-10.586997 4.17188,-17.304687 -0.21785,-1.79619 -0.50016,-3.709964 -0.62696,-4.251953 -0.29299,-1.252331 -1.87726,-4.59352 -2.85937,-6.03125 -1.46509,-2.14471 -2.44004,-3.148772 -4.59375,-4.732422 -2.39742,-1.76285 -4.94486,-2.972609 -8.005856,-3.798828 -2.23509,-0.603291 -2.88654,-0.665901 -7.02148,-0.6875 z m 215.316396,0.582031 -5.17578,0.06641 -5.17773,0.06641 0.002,21.986328 c 10e-4,12.09313 0.004,22.043628 0.004,22.111329 7.4e-4,0.06778 2.32838,0.123046 5.17382,0.123046 h 5.17383 V 44.832031 Z m -110.61523,0.0098 V 44.837925 67.0098 h 5.17383 5.17382 V 44.83789 22.666015 h -5.17382 z m 121.42578,0 0.0918,15.828125 c 0.0685,11.80215 0.17145,16.079684 0.40234,16.814453 0.17031,0.541991 0.42301,1.373417 0.5625,1.847657 0.13951,0.47424 0.70677,1.784259 1.25977,2.912109 0.78544,1.60181 1.36603,2.383736 2.65429,3.572266 2.31019,2.131383 5.06699,3.442698 8.11524,3.859375 h 0.002 c 3.27842,0.447384 7.61071,0.153087 10.22266,-0.695313 2.20939,-0.71766 3.57226,-1.301587 3.57226,-1.529297 0,-0.11166 0.24598,-0.281453 0.54688,-0.376953 0.54497,-0.17297 2.74551,-2.280662 3.5039,-3.357422 0.33771,-0.4795 0.43316,-0.510355 0.63282,-0.197265 0.1296,0.20324 0.24014,0.592291 0.24414,0.863281 0.0209,1.37691 1.1807,3.482974 2.33593,4.240234 1.75299,1.14912 3.09413,1.386883 6.86524,1.220704 4.72736,-0.2083 4.59575,-0.154212 4.59375,-1.857422 -8.2e-4,-0.7633 -0.0723,-2.289638 -0.15821,-3.392578 l -0.15625,-2.00586 -1.4375,-0.103516 c -1.20455,-0.08713 -1.53305,-0.216134 -2.0371,-0.802734 -0.3307,-0.38485 -0.68316,-0.987824 -0.78321,-1.339844 -0.10004,-0.35201 -0.22645,-8.483872 -0.28125,-18.070312 l -0.0996,-17.429688 h -5.02343 -5.0254 l -0.0743,14.103481 c -0.0598,11.31426 -0.14065,14.25087 -0.41211,14.84375 -1.25416,2.73922 -1.77232,3.585037 -2.86524,4.685547 -0.72839,0.73343 -1.93535,1.579856 -2.95508,2.072265 -1.58946,0.767491 -1.91881,0.834469 -4.18945,0.855469 -3.45883,0.03195 -5.6613,-0.800975 -7.31445,-2.765625 -0.87504,-1.03991 -1.98974,-3.434706 -2.25586,-4.847656 -0.12759,-0.67748 -0.27583,-7.468124 -0.32813,-15.089844 l -0.0937,-13.857422 h -5.05664 z M 92.813074,30.986363 c 0.96123,0.0105 1.76157,0.101242 2.10156,0.283203 0.27222,0.14569 0.66917,0.265625 0.88281,0.265625 0.86997,0 5.549346,2.651181 5.560546,3.150391 0.002,0.09657 0.34998,0.562869 0.77344,1.037109 0.88823,0.99479 2.15271,3.549808 2.48633,5.023437 0.41625,1.83856 0.49862,5.140892 0.17187,6.925782 -0.96447,5.26844 -4.32539,9.022104 -9.474606,10.583984 -1.38205,0.41921 -5.69442,0.50884 -6.2793,0.13086 -0.20325,-0.131351 -0.55986,-0.240188 -0.79296,-0.242188 -0.64406,-0.0057 -3.0587,-1.171716 -4.34375,-2.097656 -1.14535,-0.82528 -2.99219,-3.00831 -2.99219,-3.53711 0,-0.15461 -0.0831,-0.28125 -0.18555,-0.28125 -0.25553,0 -0.76999,-1.287963 -1.57031,-3.939453 -0.43067,-1.42495 -0.42772,-5.642898 0.004,-7.392578 0.55445,-2.24747 1.7593,-4.439086 3.24805,-5.910156 2.14645,-2.12094 2.70337,-2.461639 5.64844,-3.443359 1.11069,-0.370244 3.15967,-0.574146 4.76172,-0.556641 z"
     id="path862"
     inkscape:connector-curvature="0" />
</svg>
