<?xml version="1.0" encoding="UTF-8" standalone="no"?>
<!-- Created with Inkscape (http://www.inkscape.org/) -->

<svg
   xmlns:dc="http://purl.org/dc/elements/1.1/"
   xmlns:cc="http://creativecommons.org/ns#"
   xmlns:rdf="http://www.w3.org/1999/02/22-rdf-syntax-ns#"
   xmlns:svg="http://www.w3.org/2000/svg"
   xmlns="http://www.w3.org/2000/svg"
   xmlns:xlink="http://www.w3.org/1999/xlink"
   xmlns:sodipodi="http://sodipodi.sourceforge.net/DTD/sodipodi-0.dtd"
   xmlns:inkscape="http://www.inkscape.org/namespaces/inkscape"
   version="1.1"
   id="svg2"
   width="524.61597"
   height="75.899605"
   viewBox="0 0 524.61597 75.899607"
   sodipodi:docname="govilnius-logo.svg"
   inkscape:version="0.92.3 (2405546, 2018-03-11)">
  <metadata
     id="metadata8">
    <rdf:RDF>
      <cc:Work
         rdf:about="">
        <dc:format>image/svg+xml</dc:format>
        <dc:type
           rdf:resource="http://purl.org/dc/dcmitype/StillImage" />
        <dc:title></dc:title>
      </cc:Work>
    </rdf:RDF>
  </metadata>
  <defs
     id="defs6">
    <linearGradient
       inkscape:collect="always"
       id="linearGradient884">
      <stop
         style="stop-color:#800000;stop-opacity:1;"
         offset="0"
         id="stop880" />
      <stop
         style="stop-color:#df0000;stop-opacity:1"
         offset="1"
         id="stop882" />
    </linearGradient>
    <radialGradient
       inkscape:collect="always"
       xlink:href="#linearGradient884"
       id="radialGradient886"
       cx="539.49878"
       cy="460.0097"
       fx="539.49878"
       fy="460.0097"
       r="262.30797"
       gradientTransform="matrix(-2.4955866,0.27572674,-0.06752837,-0.61103239,1909.4371,164.0238)"
       gradientUnits="userSpaceOnUse" />
  </defs>
  <sodipodi:namedview
     pagecolor="#ffffff"
     bordercolor="#666666"
     borderopacity="1"
     objecttolerance="10"
     gridtolerance="10"
     guidetolerance="10"
     inkscape:pageopacity="0"
     inkscape:pageshadow="2"
     inkscape:window-width="1920"
     inkscape:window-height="1017"
     id="namedview4"
     showgrid="false"
     inkscape:zoom="1.2668997"
     inkscape:cx="128.32313"
     inkscape:cy="-6.2237534"
     inkscape:window-x="-8"
     inkscape:window-y="0"
     inkscape:window-maximized="1"
     inkscape:current-layer="svg2" />
  <path
     style="fill:url(#radialGradient886);stroke-width:0.24635877;fill-opacity:1"
     d="m 21.55422,75.530062 c -0.16868,-0.20325 -0.4594,-0.36954 -0.64605,-0.36954 -0.18666,0 -0.33938,-0.11086 -0.33938,-0.24636 0,-0.1355 -0.13858,-0.24637 -0.30795,-0.24639 -0.16937,-2e-5 -1.17304,-0.55433 -2.23041,-1.23179 -1.05734,-0.67747 -1.97969,-1.23176 -2.04965,-1.23176 -0.07,0 -0.59062,-0.30826 -1.15703,-0.68502 -0.5664,-0.37676 -1.36241,-0.84792 -1.7689,-1.04703 -0.40649,-0.1991 -0.95398,-0.55601 -1.21665,-0.79313 -0.26266,-0.23712 -0.61372,-0.43113 -0.78014,-0.43113 -0.16642,0 -0.33951,-0.097 -0.38466,-0.21558 -0.0452,-0.11857 -0.7473104,-0.56288 -1.5602904,-0.98736 -1.54563,-0.807 -1.82648,-0.97258 -3.44619,-2.03162 -0.98544,-0.64433 -1.95129,-1.20764 -4.06776,-2.37238 -2.03382996,-1.11927 -1.95415996,-0.0788 -0.73071996,-9.54412 0.12259,-0.94849 0.34147996,-2.66684 0.48640996,-3.81857 0.14493,-1.15172 0.37821,-2.98094 0.51839,-4.06491 0.14018,-1.08398 0.30396,-2.41432 0.36394,-2.95631 0.06,-0.54199 0.21941,-1.76147 0.35429,-2.70995 0.13486,-0.94848 0.2926,-2.16795 0.35052,-2.70994 0.0579,-0.54199 0.21837,-1.8169 0.35653,-2.83313 0.38299,-2.81656 0.96908,-7.4928 1.26602,-10.10071 0.14655,-1.28722 0.37207,-2.89471 0.50114,-3.5722 0.12909,-0.67749 0.28989,-1.84153 0.35737,-2.58677 0.11813,-1.30448 0.28893,-2.68648 0.82212,-6.65168 0.13663,-1.01623 0.37762,-2.8454505 0.53549,-4.0649205 0.15789,-1.21948 0.3109,-2.24279 0.34005,-2.27403 0.0292,-0.0312 1.04367,-0.39888 2.2545,-0.81699 1.2108304,-0.41811 2.4232104,-0.85109 2.6942004,-0.96219 1.15469,-0.47338 8.23834,-2.72166 8.57509,-2.72166 0.41817,0 0.90972,1.21011 0.90972,2.23945 0,0.37828 0.11087,0.75629 0.24636,0.84003 0.1355,0.0838 0.24636,0.56798 0.24636,1.07607 0,0.5081 0.15444,1.13501 0.34318,1.39313 0.32721,0.44747 0.42758,0.45226 2.15564,0.10284 l 1.81246,-0.36649 0.069,-2.98802 c 0.0471,-2.03848 0.16824,-3.07037996 0.38129,-3.24719996 0.38605,-0.32039 17.92975,-0.42925 18.49174,-0.11474 0.30551,0.17096 0.39491,0.81757996 0.45071,3.25973996 l 0.0696,3.04647 1.35416,0.34617 c 2.51094,0.64188 2.62067,0.5562 3.21151,-2.50797 0.15676,-0.81298 0.42027,-1.86616 0.5856,-2.3404 0.31159,-0.89389 0.65605,-0.99155 1.74678,-0.49525 0.27099,0.1233 3.04253,1.06436 6.15897,2.09124 3.11644,1.02688 5.80978,1.95665 5.98521,2.06615 0.18484,0.11538 0.42896,1.12244 0.58055,2.39499 0.14387,1.20773 0.36461,2.9164805 0.4905,3.7972205 0.12589,0.88073 0.33105,2.43279 0.45591,3.44902 0.85957,6.99552 1.57349,12.58869 1.99676,15.64378 0.13143,0.94848 0.28691,2.22339 0.34554,2.83313 0.0586,0.60974 0.21884,1.88464 0.35604,2.83312 0.28349,1.9597 0.41122,2.92504 0.73341,5.54308 0.58197,4.72873 0.80798,6.50849 1.26495,9.9614 1.27981,9.67048 1.36887,10.72323 0.90973,10.7521 -0.16937,0.0106 -0.77201,0.31552 -1.33923,0.67748 -0.56721,0.36197 -1.95298,1.20239 -3.07948,1.8676 -1.1265,0.6652 -2.51653,1.49667 -3.08892,1.84769 -5.37762,3.2978 -12.39453,7.41308 -12.63996,7.41308 -0.13121,0 -0.2386,0.0903 -0.2386,0.20073 0,0.1104 -0.39175,0.38756 -0.8706,0.6159 -0.78478,0.37424 -2.25123,0.41517 -14.87453,0.41517 -12.14741,0 -14.04459,-0.049 -14.31064,-0.36954 z m 28.64259,-10.38414 c 1.52249,-0.90112 3.04531,-1.81111 3.38406,-2.02221 1.50382,-0.93715 7.00021,-4.22287 7.06406,-4.22287 0.10244,0 2.79068,-1.72935 2.78824,-1.79367 0,-0.0297 -0.17462,-1.27349 -0.38555,-2.76397 -0.21093,-1.49047 -0.43312,-3.31968 -0.49375,-4.06492 -0.0606,-0.74523 -0.21695,-2.07557 -0.34737,-2.9563 -0.13045,-0.88073 -0.35719,-2.70995 -0.5039,-4.06492 -0.14671,-1.35497 -0.43822,-3.73849 -0.6478,-5.29671 -0.20958,-1.55822 -0.47754,-3.72002 -0.59547,-4.804 -0.11794,-1.08398 -0.32212,-2.96862 -0.45375,-4.1881 -0.22418,-2.07724 -0.43031,-3.75652 -1.013,-8.25302 -0.3317,-2.55956 -0.69547,-5.719 -0.8897,-7.72717 -0.15671,-1.62015 -0.19768,-1.70561 -0.9728,-2.02948 -0.44505,-0.18596 -1.16882,-0.36716 -1.60838,-0.40267 l -0.79918,-0.0646 -0.46235,2.09405 c -0.25426,1.15173 -0.52474,2.40585 -0.60104,2.78694 -0.12039,0.60138 -0.24044,0.68441 -0.90913,0.62872 -0.42377,-0.0353 -0.88133,-0.13994 -1.01683,-0.23256 -0.13549,-0.0926 -0.63437,-0.23021 -1.10861,-0.30574 -0.97753,-0.1557 -2.79819,-0.5328 -4.43446,-0.91848 -1.99141,-0.46939 -3.3067,-0.7323 -4.43446,-0.8864 -0.60973,-0.0833 -1.24719,-0.26142 -1.41656,-0.39579 -0.21125,-0.16759 -0.30913,-1.06642 -0.31172,-2.86249 -0.002,-1.4400105 -0.0937,-2.7598405 -0.20351,-2.9329705 -0.15085,-0.23769 -1.10019,-0.29803 -3.87638,-0.24636 l -3.67664,0.0684 -0.0322,2.7725005 c -0.0192,1.65885 -0.14457,2.90787 -0.31189,3.10949 -0.1538,0.18533 -0.74906,0.40485 -1.32275,0.48783 -1.39656,0.20197 -2.77767,0.47702 -5.7239,1.13991 -1.35497,0.30486 -2.96247,0.64805 -3.5722,0.76264 -0.60974,0.11459 -1.44145,0.27653 -1.84826,0.35986 l -0.73962,0.15152 -0.57042,-2.54419 c -0.31374,-1.3993 -0.62006,-2.69627 -0.68071,-2.88216 -0.12705,-0.38928 -0.95117,-0.27671 -2.38155,0.32531 -0.85115,0.35823 -0.92385,0.46721 -0.92385,1.38508 0,0.54795 -0.10556,1.73822 -0.23463,2.64505 -0.12904,0.90684 -0.35641,2.64655 -0.50528,3.86602 -0.14885,1.21948 -0.37348,2.99326 -0.49915,3.94174 -0.12569,0.94848 -0.34599,2.72227 -0.48956,3.94174 -0.44062,3.74266 -0.73386,6.19568 -0.97911,8.1907 -0.47355,3.85201 -0.73405,6.12684 -0.83942,7.3299 -0.0593,0.67749 -0.1705,1.56438 -0.24702,1.97088 -0.0765,0.40649 -0.19376,1.29338 -0.2605,1.97087 -0.0667,0.67748 -0.2248504,2.00782 -0.3514104,2.9563 -0.12653,0.94848 -0.35318,2.7777 -0.50368,4.06492 -0.1505,1.28722 -0.33729,2.69062 -0.41509,3.11866 -0.13244,0.72866 -0.0534,0.83461 1.2415004,1.66292 0.76064,0.48657 1.44401,0.88467 1.51858,0.88467 0.0746,0 0.59957,0.31922 1.16666,0.70938 0.56707,0.39017 1.44623,0.94447 1.95365,1.2318 1.78953,1.01327 2.55622,1.46755 5.84979,3.46609 1.82921,1.10997 3.43116,2.12119 3.55988,2.24717 0.1375,0.13456 4.99165,0.22904 11.76701,0.22904 h 11.53294 z m 448.80072,5.21147 c -3.82506,-0.65865 -7.68477,-2.37168 -9.85876,-4.37555 -2.13394,-1.96697 -3.79797,-5.4235 -3.97224,-8.25117 l -0.0721,-1.17024 4.98071,-0.0667 c 4.80668,-0.0644 4.98068,-0.0498 4.98068,0.41659 0,0.26581 0.0986,0.54421 0.21906,0.61867 0.1205,0.0745 0.2927,0.42875 0.3827,0.78729 0.40604,1.61781 2.13743,3.07265 4.81813,4.04858 1.37579,0.50086 2.05242,0.58305 4.804,0.58358 4.24594,7.4e-4 6.51121,-0.72879 8.36065,-2.69283 2.56332,-2.72215 1.94062,-6.5404 -1.2885,-7.90075 -1.30287,-0.54887 -3.38542,-1.09278 -5.10128,-1.33233 -10.58195,-1.47734 -12.15675,-1.82685 -15.33529,-3.40344 -2.67908,-1.32884 -4.37055,-3.1038 -5.24954,-5.50863 -0.69663,-1.90585 -0.67214,-5.90998 0.0486,-7.95228 0.89049,-2.52333 2.54469,-4.56764 5.01565,-6.19849 1.73572,-1.14559 2.25071,-1.40424 4.06492,-2.04164 2.85966,-1.00469 3.94124,-1.13791 9.23845,-1.13791 4.61016,0 5.41499,0.0622 7.39076,0.57159 2.47652,0.63844 5.70515,2.1728 6.87043,3.26509 0.42167,0.39527 0.87756,0.72547 1.01305,0.73377 0.44044,0.027 2.25682,2.78325 2.7982,4.24612 0.32088,0.86708 0.52765,2.00143 0.52765,2.89471 v 1.46892 H 519.199 c -3.35585,0 -4.43446,-0.074 -4.43446,-0.30442 0,-0.16742 -0.29533,-0.88815 -0.65632,-1.60161 -0.90616,-1.79101 -2.29989,-2.63371 -5.62583,-3.40163 -1.68344,-0.38869 -4.87566,-0.46448 -5.93744,-0.14098 -0.39282,0.11969 -1.21312,0.36412 -1.82286,0.54318 -1.25497,0.36854 -3.69255,1.87816 -3.70085,2.29198 -0.003,0.15019 -0.22229,0.55022 -0.48725,0.88897 -0.66578,0.85114 -0.65171,2.65863 0.0296,3.81348 0.56108,0.95093 1.15567,1.33302 3.21456,2.06574 1.36205,0.48473 3.54023,0.86769 9.3201,1.63865 3.2595,0.43477 7.92048,1.59964 8.48706,2.12108 0.12872,0.11847 0.39661,0.2154 0.59528,0.2154 0.19868,0 1.03569,0.45478 1.86,1.01063 3.15249,2.12574 4.58139,5.10302 4.57533,9.53322 -0.005,3.66438 -1.02737,6.36703 -3.2867,8.68835 -2.48667,2.55491 -6.25601,4.329 -10.75282,5.06095 -2.59108,0.42175 -9.06309,0.40725 -11.57886,-0.0259 z m -355.12617,-0.11625 c -4.44059,-0.6334 -9.41122,-2.35267 -12.6416,-4.37257 -0.92392,-0.57771 -4.57513,-3.31738 -4.73605,-3.55369 -0.0729,-0.10705 -0.86048,-0.94671 -1.75016,-1.86592 -3.05014,-3.15136 -5.592,-7.67599 -6.95931,-12.3879 -0.95596,-3.29438 -1.21937,-5.50175 -1.23473,-10.34707 -0.0142,-4.48275 0.23345,-7.16506 0.85298,-9.23846 1.08729,-3.63886 1.36587,-4.36489 2.7245,-7.10054 1.44299,-2.90556 5.55295,-8.29688 6.32494,-8.29688 0.11638,0 0.48037,-0.28916 0.80887,-0.64257 0.67672,-0.72808 3.06485,-2.4734305 4.53898,-3.3173105 4.95674,-2.83751 9.60615,-4.09503 16.064,-4.34484 4.3823,-0.16952 7.3003,0.18891 11.77455,1.44631 1.65319,0.4646 2.19367,0.67037 4.24968,1.61794 3.85788,1.77799 7.76087,5.1477705 10.11604,8.7340105 1.28564,1.95769 2.75621,4.87537 2.75621,5.46849 0,0.20379 0.0981,0.43114 0.21795,0.50523 0.11988,0.0741 0.27048,0.44093 0.33471,0.8152 0.0642,0.37428 0.20053,0.87667 0.30294,1.11642 0.17541,0.41061 -0.13209,0.43206 -5.29678,0.36954 -5.17509,-0.0627 -5.49836,-0.0938 -5.75605,-0.55503 -0.40593,-0.72655 -1.67413,-2.63517 -2.1095,-3.17479 -1.15426,-1.43062 -3.63571,-3.60414 -4.11473,-3.60414 -0.18201,0 -0.33094,-0.0838 -0.33094,-0.18622 0,-0.18475 -0.32723,-0.34873 -2.46358,-1.2346 -1.99736,-0.82823 -6.02426,-1.53549 -8.74261,-1.53549 -1.89544,0 -5.76453,0.6578 -7.39389,1.25706 -5.6851,2.09092 -9.99049,6.46977 -12.32863,12.53903 -1.33776,3.47245 -1.98174,9.80993 -1.33115,13.09981 0.60158,3.04215 0.7949,3.84485 1.23588,5.1319 3.31623,9.67839 12.03009,14.92688 22.92363,13.80724 2.48458,-0.25537 4.92681,-0.75024 6.0063,-1.21706 4.27879,-1.85035 6.06752,-3.23661 8.05941,-6.24599 0.74048,-1.11874 1.40895,-2.25579 1.48549,-2.52679 0.0765,-0.27099 0.42344,-1.26874 0.77086,-2.21722 0.34742,-0.94849 0.6629,-2.22339 0.70104,-2.83313 l 0.0693,-1.10861 -9.85435,-0.12318 c -5.4199,-0.0678 -9.82664,-0.20633 -9.79276,-0.30795 0.0339,-0.10163 0.0616,-2.1257 0.0616,-4.49794 v -4.31318 l 15.08947,0.0635 15.08948,0.0635 0.0769,1.97087 c 0.17834,4.57404 -0.74388,10.93855 -2.16958,14.97273 -0.48935,1.38462 -2.6137,5.59761 -2.94707,5.84459 -0.0915,0.0678 -0.50856,0.62205 -0.9269,1.23179 -0.81355,1.18575 -5.27173,5.66605 -5.63859,5.66655 -0.12098,1.7e-4 -0.54716,0.2817 -0.94707,0.62562 -0.39992,0.34392 -1.73025,1.10622 -2.95631,1.69399 -2.8041,1.34429 -4.53211,1.93162 -8.38815,2.85102 -1.52375,0.3633 -9.81596,0.54335 -11.82522,0.25676 z m 60.3579,0.0112 c -1.83219,-0.29865 -4.39713,-0.99171 -4.6663,-1.26088 -0.12993,-0.12993 -0.39435,-0.23624 -0.58762,-0.23624 -0.55529,0 -3.224,-1.42556 -4.89475,-2.61467 -4.21833,-3.00224 -6.81828,-6.9159 -8.24644,-12.41321 -1.0695,-4.11671 -0.77465,-11.5047 0.5899,-14.78153 0.14107,-0.33874 0.34121,-0.83762 0.44475,-1.10861 0.53374,-1.39672 1.11271,-2.54153 1.63151,-3.22592 0.31783,-0.41928 0.57789,-0.83984 0.57789,-0.93458 0,-0.21509 1.5697,-1.94496 2.68629,-2.96037 0.46124,-0.41944 1.07098,-0.98434 1.35498,-1.25533 0.87078,-0.83089 3.38196,-2.259 5.19718,-2.95563 0.94848,-0.36401 1.94624,-0.7509 2.21723,-0.85977 1.5919,-0.63951 3.72731,-0.86396 8.00666,-0.84158 4.13494,0.0216 4.78614,0.0855 7.02123,0.68879 3.061,0.82622 5.60924,2.03489 8.00666,3.79774 2.15371,1.58365 3.12925,2.58872 4.59434,4.73343 0.98211,1.43773 2.56551,4.77812 2.8585,6.03045 0.1268,0.54199 0.40881,2.45505 0.62666,4.25124 0.81479,6.71769 -0.61131,12.63282 -4.17216,17.30515 -0.77447,1.01623 -1.61015,2.03558 -1.85707,2.26524 -0.88576,0.82381 -2.68053,2.30245 -3.44198,2.83571 -0.93101,0.65199 -4.34823,2.27127 -5.38316,2.55086 -0.40649,0.10982 -1.40425,0.37505 -2.21723,0.58941 -1.70719,0.45014 -8.44266,0.71071 -10.34707,0.4003 z m 7.63387,-9.26586 c 5.14922,-1.56188 8.50997,-5.31655 9.47444,-10.58499 0.32675,-1.78489 0.24518,-5.08649 -0.17107,-6.92505 -0.33362,-1.47363 -1.59832,-4.02856 -2.48655,-5.02335 -0.42346,-0.47424 -0.77167,-0.94127 -0.77383,-1.03784 -0.0112,-0.49921 -4.69055,-3.15025 -5.56052,-3.15025 -0.21364,0 -0.61117,-0.1192 -0.88339,-0.26489 -0.90665,-0.48523 -5.0863,-0.31834 -6.86341,0.27405 -2.94507,0.98172 -3.50157,1.32084 -5.64802,3.44178 -1.48875,1.47107 -2.69327,3.66323 -3.24772,5.9107 -0.43162,1.74968 -0.43367,5.96821 -0.003,7.39316 0.80032,2.65149 1.31316,3.93934 1.56869,3.93934 0.10243,0 0.18622,0.1265 0.18622,0.28111 0,0.5288 1.84646,2.71174 2.99181,3.53702 1.28505,0.92594 3.7006,2.09252 4.34466,2.09825 0.2331,0.002 0.59012,0.11124 0.79337,0.24259 0.58488,0.37798 4.89685,0.28759 6.2789,-0.13162 z m 132.42109,9.3421 c -1.39077,-0.27104 -3.84645,-1.15338 -4.54753,-1.63395 -1.36175,-0.93345 -2.869,-2.6911 -3.51064,-4.09383 -1.82291,-3.98528 -1.78568,-3.27207 -1.79125,-34.33913 l -0.005,-27.5305905 h 5.04319 5.04318 l 0.0689,27.4074205 c 0.0742,29.49795 0.006,27.97055 1.33837,30.00031 1.00278,1.5277 1.80908,1.8341 4.99517,1.89825 1.54876,0.0312 2.89304,0.14204 2.9873,0.24636 0.0942,0.10431 0.23172,1.86723 0.30548,3.91759 l 0.13412,3.72793 -0.90419,0.15806 c -1.18355,0.20689 -8.36324,0.3963 -9.15718,0.24158 z m 103.47069,-0.0985 c -3.04901,-0.41639 -5.80535,-1.72686 -8.11602,-3.85869 -1.28826,-1.18853 -1.8693,-1.97039 -2.65474,-3.5722 -0.553,-1.12785 -1.1196,-2.43865 -1.25911,-2.91289 -0.13949,-0.47424 -0.39297,-1.3057 -0.56328,-1.84769 -0.23089,-0.73477 -0.33303,-5.01184 -0.40152,-16.81399 l -0.0919,-15.82855 h 5.05728 5.05727 l 0.095,13.85768 c 0.0523,7.62172 0.19943,14.41199 0.32702,15.08947 0.26612,1.41295 1.38069,3.80869 2.25573,4.8486 1.65315,1.96465 3.8566,2.79772 7.31543,2.76577 2.27064,-0.021 2.59864,-0.088 4.1881,-0.85549 1.01973,-0.49241 2.22792,-1.33964 2.95631,-2.07307 1.09292,-1.10051 1.6101,-1.94659 2.86426,-4.68581 0.27146,-0.59288 0.35316,-3.52885 0.41297,-14.84311 l 0.0746,-14.10404 h 5.02377 5.0238 l 0.0996,17.42988 c 0.0548,9.58644 0.18147,17.7179 0.28151,18.06991 0.10005,0.35202 0.45246,0.95491 0.78315,1.33976 0.50405,0.5866 0.83353,0.71652 2.03808,0.80365 l 1.43679,0.10393 0.15614,2.00534 c 0.0859,1.10294 0.15678,2.62987 0.1576,3.39317 0.002,1.70321 0.13488,1.64939 -4.59248,1.85769 -3.77111,0.16618 -5.11189,-0.0724 -6.86488,-1.22152 -1.15523,-0.75726 -2.31642,-2.86432 -2.33733,-4.24123 -0.004,-0.27099 -0.1135,-0.65901 -0.24311,-0.86225 -0.19965,-0.31309 -0.29654,-0.28309 -0.63425,0.19641 -0.75839,1.07676 -2.95766,3.18555 -3.50263,3.35852 -0.3009,0.0955 -0.54711,0.265 -0.54711,0.37666 0,0.22771 -1.36281,0.81082 -3.5722,1.52848 -2.61244,0.84856 -6.94525,1.14336 -10.22389,0.69561 z M 275.1,69.432702 c -0.17821,-0.44037 -0.46823,-1.07782 -0.64449,-1.41656 -0.17627,-0.33875 -0.8463,-1.89081 -1.48897,-3.44903 -0.64268,-1.55822 -1.39151,-3.332 -1.66408,-3.94174 -0.27255,-0.60973 -0.58109,-1.33033 -0.68559,-1.60133 -0.35289,-0.91493 -1.32556,-3.14555 -2.60828,-5.9815 -0.32357,-0.71538 -0.5883,-1.35404 -0.5883,-1.41925 0,-0.0652 -0.23464,-0.64394 -0.5214,-1.28608 -0.28676,-0.64213 -0.6628,-1.5001 -0.83565,-1.9066 -0.17287,-0.40649 -0.6034,-1.37981 -0.95678,-2.16294 -0.35335,-0.78312 -0.64248,-1.47272 -0.64248,-1.53244 0,-0.0597 -0.28912,-0.74931 -0.64248,-1.53244 -0.35337,-0.78312 -0.78337,-1.75645 -0.95555,-2.16294 -0.17218,-0.40649 -1.04025,-2.402 -1.92904,-4.43446 -0.88879,-2.03246 -1.74087,-4.0263 -1.89349,-4.43075 -0.32324,-0.85654 -0.77095,-1.87508 -1.75454,-3.99151 -0.38962,-0.83832 -0.70838,-1.58785 -0.70838,-1.66561 0,-0.0778 -0.23463,-0.66677 -0.52139,-1.30891 -0.28676,-0.64213 -0.66308,-1.5001 -0.83624,-1.90659 -0.17319,-0.40649 -0.54251,-1.24689 -0.82075,-1.86754 -0.27821,-0.62065 -0.74112,-1.72927 -1.02864,-2.46359 -0.28755,-0.73432 -0.73004,-1.77857 -0.98334,-2.32056 -1.3229,-2.83064 -2.21497,-4.87192 -2.21497,-5.06839 0,-0.12126 -0.34352,-0.91512 -0.76341,-1.7641405 -0.54308,-1.09813 -0.77416,-1.93474 -0.80067,-2.89864 l -0.0372,-1.35497 4.92718,-0.12318 c 6.8755,-0.17189 6.30208,-0.32446 7.26209,1.93221 0.44135,1.03749 0.99568,2.3298 1.23184,2.8717805 0.23613,0.54199 0.7999,1.92776 1.25281,3.07949 0.4529,1.15173 0.91185,2.131 1.01985,2.17617 0.108,0.0452 0.19637,0.29611 0.19637,0.55765 0,0.26154 0.10155,0.66803 0.22564,0.90331 0.23779,0.45079 0.39218,0.81268 1.86417,4.36953 0.50467,1.21948 1.12781,2.68718 1.38476,3.26157 0.25695,0.57439 0.46717,1.18967 0.46717,1.36729 0,0.17762 0.0957,0.42827 0.21271,0.55699 0.11697,0.12872 0.67857,1.50895 1.24798,3.06717 0.56941,1.55822 1.3716,3.72002 1.78265,4.80399 0.41105,1.08398 0.95806,2.5529 1.21561,3.26426 1.13061,3.12302 1.51535,4.15763 1.71773,4.61922 0.11882,0.271 0.44848,1.15789 0.73258,1.97088 0.28412,0.81298 0.60872,1.69987 0.72138,1.97087 0.11264,0.27099 0.44816,1.15788 0.74556,1.97087 0.70087,1.91585 1.03909,2.61523 1.19114,2.46317 0.0676,-0.0676 0.37151,-0.81571 0.67545,-1.66255 0.99341,-2.76802 2.8565,-7.91568 3.36595,-9.3 0.27424,-0.74524 0.91628,-2.51902 1.42673,-3.94174 0.51044,-1.42272 1.27917,-3.52909 1.70828,-4.68082 0.42911,-1.15173 0.95003,-2.59293 1.15762,-3.20266 0.20755,-0.60974 0.47742,-1.21394 0.59963,-1.34266 0.12225,-0.12872 0.22227,-0.37538 0.22227,-0.54814 0,-0.17275 0.31344,-1.00975 0.69653,-1.86001 0.38311,-0.85025 0.94395,-2.21108 1.24633,-3.02406 0.30235,-0.81298 0.76526,-1.9216 1.02864,-2.46359 0.26339,-0.54199 0.47858,-1.06979 0.47821,-1.17289 0,-0.1031 0.23394,-0.71283 0.5207,-1.35497 0.87786,-1.96579 1.12318,-2.55415 2.1623,-5.18603 0.97383,-2.4665105 1.51877,-3.7631605 2.06626,-4.9164305 l 0.26523,-0.55874 5.68384,0.066 5.68384,0.066 0.0745,0.88997 c 0.0477,0.5706 -0.16181,1.41045 -0.5839,2.34041 -0.36209,0.79774 -0.81133,1.8107305 -0.99829,2.2511005 -0.18699,0.44037 -0.51755,1.2164 -0.73462,1.72451 -0.21704,0.50812 -0.48291,1.14557 -0.59077,1.41657 -0.32117,0.80692 -2.15844,5.09075 -3.01126,7.02122 -0.74637,1.68946 -1.04757,2.39681 -2.04564,4.804 -0.50561,1.21947 -1.13843,2.7161 -1.40622,3.32584 -0.26782,0.60974 -0.62819,1.4412 -0.80086,1.84769 -0.17268,0.40649 -0.60442,1.37956 -0.95945,2.16237 -0.355,0.78282 -0.64548,1.48708 -0.64548,1.56502 0,0.14327 -2.2244,5.27519 -2.85897,6.59594 -0.18903,0.39343 -0.3437,0.92003 -0.3437,1.1702 0,0.25018 -0.11086,0.45487 -0.24635,0.45487 -0.1355,0 -0.24636,0.14926 -0.24636,0.33169 0,0.18243 -0.1542,0.65359 -0.34266,1.04702 -0.18849,0.39344 -0.50792,1.10336 -0.70986,1.5776 -0.20194,0.47424 -0.53347,1.25027 -0.73671,1.72451 -0.20325,0.47424 -0.53583,1.25027 -0.73908,1.72451 -0.20325,0.47424 -0.56214,1.3057 -0.79754,1.84769 -0.23539,0.54199 -0.56822,1.31802 -0.73964,1.72451 -0.17139,0.40649 -0.54625,1.26446 -0.83301,1.9066 -0.28676,0.64213 -0.5214,1.22087 -0.5214,1.28608 0,0.16577 -1.16311,2.82045 -1.60522,3.66374 -0.2011,0.3836 -0.36565,0.79605 -0.36565,0.91654 0,0.12051 -0.28912,0.85984 -0.64248,1.64296 -0.35337,0.78313 -0.79682,1.78417 -0.98543,2.22453 -0.18864,0.44037 -0.50925,1.18868 -0.7125,1.66292 -0.20324,0.47424 -0.54713,1.27799 -0.7642,1.78611 -0.94166,2.20432 -0.66411,2.03246 -3.28221,2.03246 h -2.36182 z m 38.14302,-21.86434 v -22.17229 h 5.17353 5.17354 v 22.17229 22.17229 h -5.17354 -5.17353 z m 47.79222,4.86558 c 0,-10.65989 -0.095,-17.64385 -0.24523,-18.18455 -0.31635,-1.13874 -1.69342,-1.95528 -3.29756,-1.95528 h -1.13665 v -3.5571 -3.55711 l 1.17021,-0.19687 c 0.64361,-0.10828 2.72226,-0.19313 4.61922,-0.18856 3.09804,0.007 3.56863,0.0666 4.62426,0.5808 2.06251,1.00473 3.60188,3.2769 3.6417,5.37522 l 0.0128,0.68137 0.41822,-0.61408 c 0.62523,-0.91795 3.30317,-3.45084 3.64854,-3.45084 0.16548,0 0.33784,-0.0884 0.38302,-0.19638 0.12712,-0.30404 2.28567,-1.24951 3.848,-1.6855 4.4046,-1.22915 11.38222,-0.9863 14.36124,0.49983 0.43726,0.21814 0.94427,0.39661 1.12669,0.39661 0.18243,0 0.3317,0.11087 0.3317,0.24636 0,0.1355 0.13976,0.24636 0.31056,0.24636 0.42485,0 3.58947,2.49747 3.74601,2.95631 0.0694,0.20324 0.37762,0.64669 0.68505,0.98543 0.65746,0.72443 1.95582,3.3028 2.54316,5.05036 0.96028,2.85721 1.07363,4.91414 1.08267,19.64711 l 0.009,14.22722 h -5.17353 -5.17354 l -0.0108,-13.98086 c -0.0106,-13.5847 -0.11758,-15.79276 -0.7984,-16.47357 -0.0969,-0.0969 -0.17617,-0.33409 -0.17617,-0.52709 0,-0.72557 -2.0396,-3.23784 -3.28527,-4.0466 -1.38968,-0.90226 -2.25238,-1.23396 -4.42763,-1.70236 -2.87708,-0.61954 -6.71446,0.70784 -9.18315,3.17653 -0.73397,0.73398 -1.3345,1.44392 -1.3345,1.57765 0,0.13372 -0.20519,0.5374 -0.45598,0.89706 -0.2508,0.35966 -0.69424,1.54837 -0.98544,2.64158 -0.51043,1.91626 -0.52945,2.4626 -0.52945,15.21265 v 13.22501 h -5.17353 -5.17354 l -0.002,-17.30671 z m 52.47444,17.18353 c 0,-0.0677 -0.002,-10.01757 -0.003,-22.1107 l -0.002,-21.98752 5.17639,-0.0665 5.17637,-0.0665 v 22.17719 22.17719 h -5.17354 c -2.84544,0 -5.17415,-0.0554 -5.17489,-0.12318 z M 316.1228,17.755092 c -0.38082,-0.11433 -1.17845,-0.57597 -1.7725,-1.02585 -1.39072,-1.05322 -2.09272,-2.65078 -2.09272,-4.76249 0,-2.4665805 0.86066,-4.0099005 2.89706,-5.1950205 1.02251,-0.59507 1.42849,-0.6804 3.26191,-0.68564 1.81377,-0.005 2.24243,0.0798 3.20267,0.63515 2.86759,1.65839 3.77135,5.4308905 2.05825,8.5915105 -0.94718,1.74753 -2.86436,2.69744 -5.3841,2.66767 -0.81298,-0.01 -1.78974,-0.11101 -2.17057,-0.22533 z m 99.85182,-0.20343 c -1.6468,-0.82892 -2.18037,-1.30768 -2.73744,-2.45632 -0.77999,-1.60825 -0.80037,-4.6574 -0.0407,-6.0821305 1.03646,-1.94374 2.9892,-2.96134 5.65406,-2.94639 2.40318,0.0135 4.03846,0.85291 5.19144,2.66492 0.56626,0.88989 0.65125,1.2886505 0.66387,3.1146005 0.0106,1.51878 -0.10508,2.34354 -0.42076,3.00223 -0.55618,1.16047 -2.12275,2.50359 -3.34844,2.87082 -1.42764,0.42774 -3.94834,0.34253 -4.96206,-0.16773 z"
     id="path862"
     inkscape:connector-curvature="0" />
</svg>
